<?xml version="1.0" standalone="no"?>
<!DOCTYPE svg PUBLIC "-//W3C//DTD SVG 20010904//EN"
 "http://www.w3.org/TR/2001/REC-SVG-20010904/DTD/svg10.dtd">
<svg version="1.0" xmlns="http://www.w3.org/2000/svg"
 width="813.000000pt" height="813.000000pt" viewBox="0 0 813.000000 813.000000"
 preserveAspectRatio="xMidYMid meet">

<g transform="translate(0.000000,813.000000) scale(0.100000,-0.100000)"
fill="#000000" stroke="none">
<path d="M3820 8124 c-412 -35 -685 -88 -1014 -194 -461 -150 -898 -386 -1286
-696 -173 -138 -486 -451 -624 -624 -496 -621 -784 -1324 -878 -2145 -16 -144
-16 -656 0 -800 94 -822 381 -1524 878 -2145 138 -173 451 -486 624 -624 611
-489 1299 -774 2100 -873 110 -13 218 -17 445 -17 227 0 335 4 445 17 801 99
1488 384 2100 873 173 138 486 451 624 624 489 612 774 1299 873 2100 25 204
25 686 0 890 -99 801 -384 1489 -873 2100 -138 173 -451 486 -624 624 -609
487 -1301 775 -2095 871 -123 15 -591 28 -695 19z m2325 -2640 c117 -77 75
-355 -94 -624 -223 -355 -619 -655 -949 -720 l-63 -13 -91 -126 c-108 -149
-155 -209 -217 -273 -24 -26 -43 -49 -40 -52 2 -2 83 -55 179 -118 531 -348
902 -527 1300 -628 210 -53 296 -64 535 -64 200 -1 227 1 298 22 155 45 279
125 331 215 58 102 55 252 -10 380 -44 89 -35 112 26 61 85 -72 120 -242 85
-407 -41 -194 -170 -318 -394 -379 -65 -19 -104 -22 -276 -22 -215 0 -318 12
-513 60 -403 98 -787 286 -1432 698 l-195 124 -50 -47 c-69 -64 -157 -130
-240 -179 -217 -127 -426 -134 -670 -22 -111 51 -217 149 -306 285 l-39 60 0
-36 c0 -19 -7 -60 -16 -90 -64 -220 -296 -379 -671 -459 -144 -31 -453 -39
-628 -15 -534 71 -960 318 -1130 655 -121 241 -103 526 49 755 117 175 302
283 515 301 64 5 82 4 104 -11 15 -9 25 -21 22 -25 -2 -4 -42 -10 -88 -13
-167 -12 -309 -80 -403 -193 -87 -104 -124 -213 -131 -384 -6 -143 12 -241 67
-359 133 -283 478 -520 909 -622 433 -104 893 -36 1105 161 83 78 118 153 124
266 10 193 -48 278 -454 664 -216 205 -290 357 -264 542 14 97 53 171 132 250
115 116 320 201 566 233 259 35 449 3 513 -86 33 -47 34 -144 1 -211 -47 -96
-153 -188 -271 -236 -109 -44 -129 -20 -34 42 89 57 146 118 179 189 47 104
23 185 -66 224 -24 11 -77 17 -165 20 -147 5 -279 -16 -394 -62 -227 -93 -348
-275 -312 -471 26 -137 97 -228 358 -457 104 -90 204 -184 223 -207 l35 -42 1
109 c0 147 27 203 118 244 109 49 295 -5 540 -158 103 -64 600 -394 666 -442
24 -17 47 -31 51 -31 15 0 295 347 287 355 -2 2 -37 11 -77 19 -144 30 -296
122 -374 226 -137 182 -172 415 -92 612 125 307 475 480 723 356 79 -39 61
-89 -19 -52 -163 73 -447 -74 -554 -286 -82 -164 -85 -377 -8 -532 80 -158
249 -268 414 -268 l47 0 85 128 c85 127 148 234 312 522 209 368 341 526 511
610 119 58 259 74 319 34z"/>
<path d="M5925 5416 c-45 -20 -139 -110 -209 -200 -98 -126 -171 -241 -331
-516 -81 -140 -177 -304 -212 -363 -36 -60 -62 -111 -59 -114 20 -21 234 84
351 172 244 183 518 533 597 761 33 97 40 191 17 239 -13 27 -19 30 -69 32
-30 2 -69 -3 -85 -11z"/>
<path d="M3395 4242 c-61 -29 -78 -54 -83 -120 -7 -105 71 -351 148 -469 85
-129 196 -214 326 -247 76 -20 221 -21 291 -2 120 32 244 108 366 225 l68 65
-260 171 c-327 217 -529 339 -606 366 -85 31 -198 35 -250 11z"/>
</g>
</svg>
