<?xml version="1.0" standalone="no"?>
<!DOCTYPE svg PUBLIC "-//W3C//DTD SVG 20010904//EN"
 "http://www.w3.org/TR/2001/REC-SVG-20010904/DTD/svg10.dtd">
<svg version="1.0" xmlns="http://www.w3.org/2000/svg"
 width="900.000000pt" height="900.000000pt" viewBox="0 0 900.000000 900.000000"
 preserveAspectRatio="xMidYMid meet">
<metadata>
Created by potrace 1.10, written by Peter Selinger 2001-2011
</metadata>
<g transform="translate(0.000000,900.000000) scale(0.100000,-0.100000)"
fill="#000000" stroke="none">
<path d="M4123 8988 c3 -15 -58 -27 -143 -28 -36 0 -92 -7 -125 -15 -33 -8
-75 -14 -93 -15 -18 0 -61 -6 -95 -14 -34 -8 -98 -22 -142 -31 -44 -10 -96
-22 -115 -27 -19 -6 -53 -13 -75 -18 -22 -4 -53 -12 -70 -18 -16 -6 -46 -15
-65 -22 -19 -7 -51 -16 -70 -20 -45 -10 -97 -28 -133 -46 -16 -8 -36 -14 -46
-14 -9 0 -26 -7 -37 -15 -10 -8 -26 -15 -35 -15 -14 0 -129 -47 -249 -102
-105 -47 -332 -165 -385 -199 -16 -10 -39 -23 -50 -28 -11 -5 -37 -21 -58 -35
-21 -14 -40 -26 -42 -26 -2 0 -34 -21 -72 -47 -37 -26 -88 -60 -113 -77 -367
-245 -861 -739 -1106 -1106 -17 -25 -51 -76 -77 -113 -26 -38 -47 -70 -47 -72
0 -2 -12 -21 -26 -42 -14 -21 -30 -47 -35 -58 -5 -11 -18 -33 -28 -50 -34 -53
-152 -280 -199 -385 -55 -120 -102 -235 -102 -249 0 -9 -7 -25 -15 -35 -8 -11
-15 -28 -15 -37 0 -10 -6 -30 -14 -46 -18 -36 -36 -88 -46 -133 -7 -33 -12
-47 -41 -132 -6 -18 -15 -51 -19 -73 -5 -22 -12 -56 -18 -75 -5 -19 -17 -71
-27 -115 -9 -44 -23 -108 -31 -142 -8 -34 -14 -77 -14 -95 0 -18 -5 -49 -10
-68 -23 -75 -35 -299 -35 -660 0 -361 12 -585 35 -660 5 -19 10 -50 10 -68 0
-18 6 -61 14 -95 8 -34 21 -98 31 -142 9 -44 22 -102 30 -130 8 -27 16 -61 19
-75 2 -14 9 -40 15 -57 6 -18 16 -48 22 -65 6 -18 15 -49 19 -68 10 -45 28
-97 46 -133 8 -16 14 -35 14 -42 0 -8 6 -29 14 -47 8 -18 31 -73 51 -123 74
-178 203 -442 266 -540 10 -16 23 -39 28 -50 5 -11 21 -37 35 -58 14 -21 26
-40 26 -42 0 -2 21 -34 47 -72 26 -37 60 -88 77 -113 29 -43 135 -184 212
-280 45 -57 198 -224 289 -315 195 -196 427 -392 605 -511 25 -17 76 -51 113
-77 38 -26 70 -47 72 -47 2 0 23 -12 47 -27 69 -45 82 -52 103 -63 11 -6 47
-26 80 -44 130 -73 307 -158 460 -221 50 -20 105 -43 123 -51 18 -8 39 -14 47
-14 7 0 26 -6 42 -14 31 -15 74 -30 148 -52 28 -8 73 -21 100 -30 28 -8 61
-17 75 -20 14 -3 48 -11 75 -19 28 -8 86 -21 130 -30 44 -10 108 -23 142 -31
34 -8 77 -14 95 -14 18 0 49 -5 68 -10 75 -23 299 -35 660 -35 338 0 612 13
639 30 6 3 43 10 83 15 104 12 204 32 348 70 25 6 63 15 85 20 22 5 64 16 92
25 29 9 74 22 100 30 73 21 115 36 146 51 16 8 35 14 42 14 8 0 29 6 47 14 18
8 74 31 123 51 178 74 442 203 540 266 17 10 39 23 50 28 11 5 37 21 58 35 21
14 40 26 42 26 2 0 34 21 72 47 37 26 88 60 113 77 43 29 184 135 280 212 57
45 224 198 315 289 196 195 392 427 511 605 17 25 51 76 77 113 26 38 47 70
47 72 0 2 12 21 26 42 14 21 30 47 35 58 5 11 18 34 28 50 63 98 192 362 266
540 20 50 43 105 51 123 8 18 14 39 14 47 0 7 6 26 14 42 15 30 30 72 51 143
7 25 20 70 29 100 10 30 19 66 22 80 3 14 11 48 19 75 8 28 21 86 30 130 10
44 23 108 31 142 8 34 14 77 14 95 1 18 7 60 15 93 8 33 15 89 15 125 1 85 13
146 28 142 9 -1 12 88 12 368 0 280 -3 369 -12 367 -15 -3 -27 58 -28 143 0
36 -7 92 -15 125 -8 33 -14 74 -15 90 0 37 -19 133 -66 330 -8 33 -19 78 -24
100 -5 22 -16 65 -25 95 -10 30 -23 75 -30 100 -21 71 -36 113 -51 143 -8 16
-14 35 -14 42 0 8 -6 29 -14 47 -8 18 -31 74 -51 123 -74 178 -203 442 -266
540 -10 17 -23 39 -28 50 -5 11 -21 37 -35 58 -14 21 -26 40 -26 42 0 2 -21
34 -47 72 -26 37 -60 88 -77 113 -29 43 -135 184 -212 280 -117 147 -467 497
-614 614 -96 77 -237 183 -280 212 -25 17 -76 51 -113 77 -38 26 -70 47 -72
47 -2 0 -21 12 -42 26 -21 14 -47 30 -58 35 -11 5 -33 18 -50 28 -53 34 -280
152 -385 199 -120 55 -235 102 -249 102 -9 0 -25 7 -35 15 -11 8 -28 15 -37
15 -10 0 -30 6 -46 14 -36 18 -88 36 -133 46 -33 7 -47 12 -132 41 -18 6 -51
15 -73 19 -22 5 -56 12 -75 18 -19 5 -71 17 -115 27 -44 9 -108 23 -142 31
-34 8 -77 14 -95 14 -18 1 -60 7 -93 15 -33 8 -89 15 -125 15 -85 1 -146 13
-142 28 1 9 -88 12 -368 12 -280 0 -369 -3 -367 -12z m2667 -2928 c16 -11 39
-37 52 -58 20 -32 23 -49 21 -133 -1 -140 -49 -283 -157 -475 -82 -146 -328
-416 -496 -544 -84 -64 -272 -177 -332 -200 -18 -6 -42 -16 -53 -21 -40 -17
-145 -49 -161 -49 -9 0 -35 -5 -57 -12 -34 -10 -51 -26 -113 -113 -94 -128
-174 -231 -247 -317 -32 -37 -57 -72 -55 -77 3 -9 140 -102 318 -216 41 -26
93 -60 115 -74 22 -15 47 -30 55 -34 8 -4 29 -16 45 -26 151 -97 550 -295 730
-363 182 -68 297 -102 547 -159 135 -31 482 -48 607 -29 257 38 441 143 516
296 26 52 27 61 23 177 -2 67 -8 131 -14 142 -70 132 -77 155 -46 155 19 0 77
-58 101 -99 28 -51 53 -183 47 -256 -22 -294 -177 -468 -476 -535 -86 -20
-116 -21 -325 -17 -126 3 -259 10 -295 16 -109 20 -212 41 -267 57 -115 31
-170 47 -203 60 -19 7 -66 23 -103 35 -37 12 -70 26 -73 30 -3 5 -15 9 -28 9
-12 0 -26 4 -31 9 -6 5 -39 21 -75 36 -59 24 -344 163 -380 185 -36 22 -166
97 -180 103 -8 4 -28 16 -45 27 -16 11 -39 24 -50 30 -11 6 -32 18 -47 28 -40
26 -216 136 -236 147 -10 6 -49 31 -87 56 -136 90 -190 124 -209 132 -14 5
-29 -2 -60 -30 -154 -138 -262 -210 -411 -273 l-80 -35 -170 1 c-161 0 -174 2
-240 28 -38 15 -81 31 -95 36 -60 19 -148 79 -213 143 -58 58 -140 161 -150
190 -3 9 -15 17 -25 17 -16 0 -21 -10 -26 -51 -6 -46 -25 -101 -47 -139 -5 -8
-13 -25 -18 -36 -14 -31 -106 -123 -176 -174 -64 -48 -217 -130 -240 -130 -8
0 -29 -6 -47 -14 -35 -15 -109 -35 -223 -60 -39 -8 -154 -21 -255 -27 -243
-16 -497 5 -700 58 -135 35 -163 44 -295 94 -54 21 -182 84 -245 120 -37 21
-179 128 -225 168 -116 103 -221 255 -270 391 -20 58 -45 217 -45 289 1 152
54 318 146 456 43 66 177 193 230 220 22 10 45 24 53 29 18 14 70 33 156 56
76 21 245 28 245 10 0 -5 0 -13 0 -17 1 -5 -19 -11 -42 -15 -24 -3 -72 -11
-108 -16 -135 -21 -243 -76 -335 -168 -73 -74 -113 -142 -156 -264 -21 -58
-23 -83 -23 -240 0 -144 3 -182 17 -214 9 -21 17 -45 17 -52 0 -23 63 -145
109 -214 25 -36 72 -94 105 -129 57 -59 202 -179 236 -194 8 -4 31 -17 50 -28
106 -65 235 -124 345 -160 128 -41 152 -48 220 -63 145 -32 215 -40 405 -43
199 -5 274 3 435 44 167 42 340 140 414 235 12 14 35 55 53 90 29 59 31 70 32
173 1 82 -3 121 -16 150 -9 22 -19 47 -23 55 -6 16 -15 31 -59 100 -27 42
-145 162 -430 437 -77 75 -133 140 -169 195 -68 106 -75 124 -93 225 -13 74
-13 95 0 166 19 110 56 177 146 267 60 60 94 84 170 122 127 62 255 108 300
108 10 0 46 7 79 16 48 12 106 14 278 12 215 -3 219 -3 275 -31 32 -16 68 -43
84 -65 26 -33 29 -45 29 -112 -1 -93 -24 -146 -102 -230 -77 -84 -188 -151
-285 -174 -23 -5 -28 -3 -28 12 0 13 23 34 66 62 119 77 170 140 208 257 17
50 17 54 -3 98 -26 59 -51 79 -130 105 -113 35 -331 23 -501 -28 -30 -9 -64
-22 -75 -29 -11 -7 -26 -13 -35 -13 -27 0 -168 -100 -212 -150 -43 -49 -60
-78 -92 -156 -21 -49 -18 -219 4 -274 50 -122 164 -250 415 -466 77 -67 163
-146 191 -177 29 -31 54 -53 58 -50 3 4 6 55 6 113 0 120 16 173 67 222 57 55
167 72 276 44 105 -27 249 -93 345 -157 24 -16 45 -29 48 -29 3 0 17 -8 32
-19 15 -10 88 -58 162 -106 74 -49 155 -102 180 -118 25 -17 106 -71 180 -120
74 -50 151 -103 171 -119 20 -15 46 -28 57 -28 12 0 45 30 89 83 92 110 223
284 223 296 0 11 -8 13 -90 31 -210 46 -388 184 -477 370 -53 111 -68 181 -67
315 1 224 73 369 262 531 116 99 234 144 378 144 122 0 254 -47 254 -90 0 -27
-36 -35 -68 -14 -32 21 -150 30 -207 16 -177 -46 -336 -175 -415 -338 -36 -72
-45 -106 -58 -200 -14 -103 -14 -122 0 -206 8 -51 22 -109 29 -128 21 -54 93
-162 130 -195 42 -37 144 -105 158 -105 6 0 25 -6 43 -14 18 -8 62 -19 99 -26
103 -18 92 -28 271 254 43 66 82 130 87 142 5 11 28 51 50 88 23 36 41 68 41
70 0 3 20 39 45 80 25 42 45 78 45 81 0 2 30 54 68 115 37 61 72 119 77 128
96 161 290 365 399 421 109 56 153 68 254 70 80 1 98 -2 122 -19z"/>
<path d="M6579 5996 c-77 -24 -168 -107 -273 -246 -69 -91 -184 -259 -199
-290 -4 -8 -16 -28 -27 -45 -11 -16 -23 -37 -27 -45 -5 -12 -51 -92 -103 -180
-5 -8 -28 -48 -52 -89 -24 -41 -58 -100 -76 -130 -18 -31 -37 -65 -42 -76 -6
-11 -19 -33 -30 -50 -11 -16 -24 -39 -30 -50 -13 -25 -30 -53 -52 -84 -43 -58
16 -54 145 9 121 60 119 59 222 134 188 139 363 325 499 530 176 267 241 462
190 570 -26 53 -70 66 -145 42z"/>
<path d="M3783 4701 c-43 -11 -99 -55 -118 -91 -17 -34 -19 -98 -4 -155 6 -22
14 -58 19 -80 7 -38 14 -59 48 -150 72 -199 190 -346 333 -417 112 -55 167
-68 288 -68 122 1 202 22 318 86 115 62 303 218 303 250 0 11 -24 30 -72 59
-9 5 -70 46 -135 90 -65 44 -122 82 -128 85 -5 3 -57 36 -115 75 -58 38 -113
74 -122 80 -10 5 -72 43 -138 83 -203 123 -264 149 -371 156 -41 3 -89 1 -106
-3z"/>
</g>
</svg>
